<svg width="40" height="55" viewBox="0 0 40 55" fill="none" xmlns="http://www.w3.org/2000/svg">
<path d="M19.9941 3.08141e-07C14.691 0.00215217 9.60578 2.07172 5.85647 5.75371C2.10715 9.4357 0.000625801 14.4287 0 19.6351C0 38.3263 20 55 20 55C20 55 40 38.3251 40 19.6351C39.9997 17.0562 39.482 14.5026 38.4764 12.1201C37.4708 9.7376 35.9971 7.57291 34.1394 5.74961C32.2816 3.92631 30.0763 2.48011 27.6492 1.49359C25.2222 0.507064 22.6209 -0.000456533 19.9941 3.08141e-07ZM19.9941 32.2192C17.4589 32.2192 14.9807 31.4811 12.8728 30.0984C10.7649 28.7156 9.12197 26.7503 8.15181 24.4508C7.18164 22.1514 6.9278 19.6211 7.42239 17.18C7.91697 14.739 9.13777 12.4967 10.9304 10.7368C12.723 8.97684 15.007 7.77832 17.4934 7.29276C19.9799 6.8072 22.5571 7.0564 24.8993 8.00886C27.2415 8.96133 29.2434 10.5743 30.6519 12.6437C32.0603 14.7132 32.8121 17.1462 32.8121 19.6351C32.8121 21.2876 32.4805 22.924 31.8364 24.4508C31.1922 25.9776 30.2481 27.3648 29.0578 28.5334C27.8675 29.7019 26.4545 30.6289 24.8993 31.2613C23.3442 31.8937 21.6774 32.2192 19.9941 32.2192Z" fill="#E4368C"/>
</svg>
